<?xml version="1.0" standalone="no"?>
<!DOCTYPE svg PUBLIC "-//W3C//DTD SVG 20010904//EN"
 "http://www.w3.org/TR/2001/REC-SVG-20010904/DTD/svg10.dtd">
<svg version="1.0" xmlns="http://www.w3.org/2000/svg"
 width="64.000000pt" height="64.000000pt" viewBox="0 0 64.000000 64.000000"
 preserveAspectRatio="xMidYMid meet">

<g transform="translate(0.000000,64.000000) scale(0.100000,-0.100000)"
fill="#000000" stroke="none">
<path d="M145 436 c-19 -14 -19 -16 -2 -33 16 -16 18 -16 34 0 15 15 16 19 2
32 -13 13 -17 13 -34 1z"/>
<path d="M274 426 c-8 -21 3 -36 27 -36 15 0 20 6 17 22 -4 27 -35 37 -44 14z"/>
<path d="M450 375 c0 -9 5 -15 11 -13 6 2 11 8 11 13 0 5 -5 11 -11 13 -6 2
-11 -4 -11 -13z"/>
<path d="M535 379 c-10 -15 3 -25 16 -12 7 7 7 13 1 17 -6 3 -14 1 -17 -5z"/>
<path d="M273 274 c-7 -19 2 -28 22 -21 19 8 19 23 0 31 -9 3 -18 -1 -22 -10z"/>
<path d="M387 284 c-14 -14 -7 -35 11 -32 9 2 17 10 17 17 0 16 -18 25 -28 15z"/>
</g>
</svg>
